<svg xmlns="http://www.w3.org/2000/svg" viewBox="0 0 64 64">
  <rect x="4" y="2" width="56" height="60" rx="8" fill="#FF3407"/>
  <rect x="4" y="12" width="56" height="4" rx="1.5" fill="#CC2A06"/>
  <rect x="4" y="30" width="56" height="4" rx="1.5" fill="#CC2A06"/>
  <rect x="4" y="48" width="56" height="4" rx="1.5" fill="#CC2A06"/>
  <rect x="12" y="16" width="9" height="14" rx="2" fill="#FFCEC3"/>
  <rect x="23" y="19" width="7" height="11" rx="1.5" fill="#FF7D60"/>
  <rect x="32" y="17" width="8" height="13" rx="2" fill="white" fill-opacity="0.9"/>
  <rect x="42" y="20" width="9" height="10" rx="2" fill="#FFCEC3"/>
  <rect x="12" y="34" width="10" height="14" rx="2" fill="white" fill-opacity="0.9"/>
  <rect x="24" y="36" width="7" height="12" rx="1.5" fill="#FF7D60"/>
  <rect x="33" y="35" width="9" height="13" rx="2" fill="#FFCEC3"/>
  <rect x="44" y="37" width="7" height="11" rx="1.5" fill="white" fill-opacity="0.75"/>
</svg>
